<?xml version="1.0" encoding="UTF-8" standalone="no"?>
<!DOCTYPE svg PUBLIC "-//W3C//DTD SVG 1.1//EN" "http://www.w3.org/Graphics/SVG/1.1/DTD/svg11.dtd">
<svg width="100%" height="100%" viewBox="0 0 512 512" version="1.1" xmlns="http://www.w3.org/2000/svg"
     xml:space="preserve"
     style="fill-rule:evenodd;clip-rule:evenodd;stroke-linejoin:round;stroke-miterlimit:2;">
    <g transform="matrix(10.6667,0,0,10.6667,256,256)">
        <g transform="matrix(1,0,0,1,-24,-24)">
            <g>
                <circle cx="24" cy="25" r="22" style="fill:rgb(203,234,251);"/>
                <path d="M2,25C1.994,31.302 4.703,37.31 9.43,41.478L11.374,38.563C11.374,38.563 12.763,38.163 13.062,37.625C14,35.938 12.335,33 12.335,33C12.301,32.296 12.188,31.598 12,30.919C11.75,30.294 10,29.438 10,29.438C10,29.438 8.312,26.688 8.312,25C8.252,23.631 9.319,22.452 10.687,22.376C11.815,22.137 12.792,21.433 13.375,20.438C13.958,19.443 15.5,19.875 16,19C16.5,18.125 15.438,15.006 15.438,15.006C15.635,14.181 15.627,13.321 15.417,12.5C15.069,11.741 14.525,11.087 13.843,10.605C13.294,9.235 12.459,7.997 11.394,6.974C5.509,11.082 1.996,17.823 2,25Z" style="fill:rgb(120,212,120);fill-rule:nonzero;"/>
                <path d="M40.9,25.716C41.4,26.904 39.961,29.936 38.775,30.528C37.561,31.079 36.502,31.923 35.695,32.984C35.257,33.672 34.682,36.508 33.245,37.071C31.808,37.634 28.4,40.841 26.588,40.341C24.776,39.841 24.775,35.528 26.025,33.59C26.771,32.433 25.9,29.902 25.837,29.028C25.774,28.154 23.15,26.528 23.149,25.653C23.149,24.278 26.149,20.653 26.149,20.653C27.18,20.281 28.262,20.07 29.357,20.028C30.115,20.304 30.841,20.66 31.524,21.09C32.846,21.188 34.149,21.46 35.4,21.9L36.838,23.212C36.838,23.212 40.4,24.528 40.9,25.716Z" style="fill:rgb(120,212,120);fill-rule:nonzero;"/>
                <path d="M33,25C32.451,25 32,24.549 32,24L32,18C32,17.451 32.451,17 33,17C33.549,17 34,17.451 34,18L34,24C34,24.549 33.549,25 33,25Z" style="fill:rgb(42,75,85);fill-rule:nonzero;"/>
                <path d="M33,19C28.063,19 24,14.937 24,10C24,5.063 28.063,1 33,1C37.937,1 42,5.063 42,10C41.995,14.935 37.935,18.995 33,19Z" style="fill:rgb(98,182,231);fill-rule:nonzero;"/>
            </g>
        </g>
    </g>
</svg>
