<?xml version="1.0" encoding="UTF-8" standalone="no"?>
<!DOCTYPE svg PUBLIC "-//W3C//DTD SVG 1.1//EN" "http://www.w3.org/Graphics/SVG/1.1/DTD/svg11.dtd">
<svg width="100%" height="100%" viewBox="0 0 1024 1024" version="1.1" xmlns="http://www.w3.org/2000/svg"
     xml:space="preserve"
     style="fill-rule:evenodd;clip-rule:evenodd;stroke-linejoin:round;stroke-miterlimit:2;">
    <g transform="matrix(1.14212,0,0,1.14212,-72.7669,-72.7669)">
        <g transform="matrix(12.9817,0,0,12.9817,59.4804,98.3029)">
                <path d="M45.217,38.868L57.847,26.238C63.384,20.7 63.384,11.691 57.847,6.153C52.309,0.616 43.3,0.616 37.762,6.153C35.914,8.002 35.914,10.999 37.762,12.848C39.611,14.697 42.609,14.697 44.457,12.848C46.303,11.002 49.306,11.002 51.152,12.848C52.998,14.694 52.998,17.697 51.152,19.543L38.522,32.173C41.64,33.277 44.113,35.75 45.217,38.868Z" style="fill:rgb(245,156,33);"/>
            </g>
        <g transform="matrix(12.9817,0,0,12.9817,59.4804,98.3029)">
                <path d="M24.5,46.195L17.041,53.654C15.192,55.503 15.192,58.5 17.041,60.349C18.889,62.198 21.887,62.198 23.735,60.349L31.195,52.89C28.077,51.786 25.604,49.313 24.5,46.195Z" style="fill:rgb(245,156,33);"/>
            </g>
        <g transform="matrix(-12.9817,0,0,12.9817,964.52,98.3029)">
                <path d="M45.217,38.868L57.847,26.238C63.384,20.7 63.384,11.691 57.847,6.153C52.309,0.616 43.3,0.616 37.762,6.153C35.914,8.002 35.914,10.999 37.762,12.848C39.611,14.697 42.609,14.697 44.457,12.848C46.303,11.002 49.306,11.002 51.152,12.848C52.998,14.694 52.998,17.697 51.152,19.543L38.522,32.173C41.64,33.277 44.113,35.75 45.217,38.868Z" style="fill:rgb(225,70,82);"/>
            </g>
        <g transform="matrix(-12.9817,0,0,12.9817,964.52,98.3029)">
                <path d="M24.5,46.195L17.041,53.654C15.192,55.503 15.192,58.5 17.041,60.349C18.889,62.198 21.887,62.198 23.735,60.349L31.195,52.89C28.077,51.786 25.604,49.313 24.5,46.195Z" style="fill:rgb(225,70,82);"/>
            </g>
        <g transform="matrix(4.86404e-17,0.794357,-1.03903,6.36225e-17,1035.37,419.305)">
                <path d="M325.955,638.344L433.105,793.037L148.814,793.037L255.964,638.344C267.284,640.057 278.986,640.955 290.959,640.955C302.933,640.955 314.635,640.057 325.955,638.344Z" style="fill:rgb(54,156,232);"/>
            </g>
        <g transform="matrix(-4.86404e-17,0.794357,1.03903,6.36225e-17,-11.3687,419.305)">
                <path d="M325.955,638.344L433.105,793.037L148.814,793.037L255.964,638.344C267.284,640.057 278.986,640.955 290.959,640.955C302.933,640.955 314.635,640.057 325.955,638.344Z" style="fill:rgb(54,156,232);"/>
            </g>
        <g transform="matrix(0.612862,0,0,0.612862,202.628,337.5)">
            <circle cx="504.798" cy="510.606" r="142.606" style="fill:rgb(54,156,232);"/>
        </g>
    </g>
</svg>
